<?xml version="1.0" standalone="no"?><!DOCTYPE svg PUBLIC "-//W3C//DTD SVG 1.1//EN" "http://www.w3.org/Graphics/SVG/1.1/DTD/svg11.dtd"><svg t="1751110951173" class="icon" viewBox="0 0 1024 1024" version="1.1" xmlns="http://www.w3.org/2000/svg" p-id="4848" xmlns:xlink="http://www.w3.org/1999/xlink" width="200" height="200"><path d="M964.518911 787.734145c0.072519-1.39961 0.253815-2.777465 0.551142-4.104557C964.750971 784.231493 964.576926 785.536829 964.518911 787.734145z" fill="#7D7D7D" p-id="4849"></path><path d="M1015.122445 229.347573 1015.136948 229.166276 1015.136948 228.513608Z" fill="#7D7D7D" p-id="4850"></path><path d="M964.497155 229.275054 964.511659 229.434595 964.497155 228.513608Z" fill="#7D7D7D" p-id="4851"></path><path d="M199.287311 486.54957c2.306094-0.696179 4.771729-1.066025 7.309883-1.066025l-0.696179 0C203.152557 485.483545 200.984248 485.867894 199.287311 486.54957z" fill="#7D7D7D" p-id="4852"></path><path d="M995.034771 988.734167c-7.114082-53.040161-22.705598-104.260104-46.303176-152.23121-4.626692-9.376665-9.514451-18.593789-14.685032-27.636868l-0.058015-0.087022c-22.473538-38.043299-50.016133-73.367147-82.149159-104.912772l-0.014504-0.014504c-6.983549-6.838511-14.177402-13.524734-21.596062-20.029659-52.808102-46.288672-113.781807-80.604511-178.809306-101.482639 11.769782-6.497674 23.147962-13.82206 34.083779-21.900641 12.458709-9.195368 24.315513-19.376991 35.461634-30.523112 58.6241-58.6241 90.916667-136.581679 90.916667-219.506788 0-82.917857-32.292568-160.875436-90.916667-219.499536C663.399602 33.35134 587.211478 1.189306 505.990558 0.029007 504.699726 0.014504 503.416145 0 502.125313 0S499.5509 0.014504 498.260067 0.029007C417.046399 1.189306 340.843772 33.358592 283.278445 90.916667c-58.6241 58.6241-90.916667 136.581679-90.916667 219.499536 0 82.925109 32.292568 160.882688 90.916667 219.506788 11.153373 11.146121 23.002925 21.327743 35.454382 30.523112 10.935817 8.071329 22.321249 15.395715 34.091031 21.900641-65.027499 20.878128-126.001204 55.193966-178.816557 101.482639-7.404157 6.490422-14.605262 13.169392-21.588811 20.029659-32.154782 31.574633-59.740887 66.927488-82.221678 105.007046-5.185086 9.035827-10.072844 18.260203-14.685032 27.636868-23.597578 47.971106-39.17459 99.191048-46.303176 152.23121-2.277087 16.998378 9.644984 32.618902 26.628859 34.90324 1.39961 0.181297 2.806473 0.282823 4.177076 0.282823 1.261825 0 2.494643-0.072519 3.72746-0.224808 12.277412-2.675939 22.197967-12.690769 24.119712-25.845657 14.307935-98.183039 61.104239-187.402769 128.365313-255.345519 79.828561-80.662526 188.476045-131.353082 305.89829-131.556135l0.667172 0c117.146673 0.398853 225.562098 51.045898 305.223866 131.556135 67.253822 67.94275 114.064629 157.16248 128.365313 255.345519 1.936249 13.147636 11.798789 23.126207 24.039942 25.845657l0.072519 0.014504c1.240069 0.145037 2.472887 0.224808 3.734712 0.224808 1.363351 0 2.777465-0.11603 4.177076-0.282823C985.382535 1021.353068 997.304605 1005.725293 995.034771 988.734167zM501.458141 558.76367l-1.870982-0.014504c-115.870345-0.848469-219.16595-81.344202-247.39022-189.31001-0.31183-1.174803-0.623661-2.364109-0.906483-3.553415-4.416388-17.846847-6.773245-36.411628-6.773245-55.447782s2.349605-37.818491 6.773245-55.977168c0.282823-1.218314 0.594653-2.422124 0.906483-3.625934C280.588002 140.149598 384.848106 52.184441 501.458141 52.184441l1.334344 0c116.602783 0 220.862887 87.972409 249.246698 198.650416 0.31183 1.20381 0.623661 2.40762 0.906483 3.625934 4.409136 18.158677 6.773245 36.926511 6.773245 55.977168s-2.342353 37.615439-6.773245 55.447782c-0.282823 1.189306-0.594653 2.378613-0.906483 3.553415C723.807661 477.404964 620.504804 557.893446 504.663467 558.749166 503.597442 558.76367 502.531417 558.76367 501.458141 558.76367z" fill="#7D7D7D" p-id="4853"></path></svg>